<svg id="Capa_1" enable-background="new 0 0 504.5 504.5" height="512" viewBox="0 0 504.5 504.5" width="512" xmlns="http://www.w3.org/2000/svg"><g><path d="m188.499 285v196.592l-24.87 8.29c-3.93 1.31-6.053 5.557-4.744 9.487 1.31 3.93 5.559 6.054 9.487 4.744l29.998-10c3.063-1.021 5.128-3.887 5.128-7.115v-201.998z" fill="#ffcb63"/><path d="m263.499 285v196.592l24.87 8.29c3.93 1.31 6.053 5.557 4.744 9.487-1.31 3.93-5.559 6.054-9.487 4.744l-29.998-10c-3.063-1.021-5.128-3.887-5.128-7.115v-201.998z" fill="#ffa754"/><path d="m165.999 177.5c-45.49 0-82.5-37.01-82.5-82.5 0-4.143-3.357-7.5-7.5-7.5s-7.5 3.357-7.5 7.5c0 53.762 43.738 97.5 97.5 97.5h60v-15z" fill="#ff6337"/><path d="m257.599 26.138c-6.499-12.495-17.869-22.051-31.6-26.138-13.731 4.087-25.101 13.643-31.6 26.138-7.798 2.729-13.4 10.133-13.4 18.862v45h90v-45c0-8.729-5.602-16.132-13.4-18.862z" fill="#353535"/><path d="m181.001 265v110c0 8.28 6.72 15 15 15s15-6.72 15-15v-47.571c4.693 1.659 9.739 2.571 15 2.571s10.307-.912 15-2.571l20-21.215v-41.214z" fill="#696969"/><path d="m241.001 265v110c0 8.284 6.716 15 15 15s15-6.716 15-15v-110z" fill="#4f4f4f"/><path d="m196.001 165h-10c-11.046 0-20 8.954-20 20v100h30l60-60z" fill="#ff6337"/><path d="m256.001 165h-60l30 60h30z" fill="#ffcb63"/><path d="m266.001 165h-10l-20 60 20 60h30v-100c0-11.046-8.954-20-20-20z" fill="#eb1b00"/><path d="m196.001 285h60v-120z" fill="#ff4128"/><path d="m225.999 45v90c24.853 0 45-20.147 45-45s-20.147-45-45-45z" fill="#ffa754"/><path d="m240.999 90c0-24.853-6.716-45-15-45-24.853 0-45 20.147-45 45s20.147 45 45 45c8.284 0 15-20.147 15-45z" fill="#ffcb63"/><path d="m436.001 285h-30l-30-60 30-60h30z" fill="#ccc"/><path d="m316.001 165h90v120h-90z" fill="#ebebeb"/><circle cx="346.001" cy="195" fill="#353535" r="7.5"/><circle cx="376.001" cy="195" fill="#353535" r="7.5"/><circle cx="406.001" cy="195" fill="#ff4128" r="7.5"/><circle cx="346.001" cy="225" fill="#353535" r="7.5"/><circle cx="376.001" cy="225" fill="#353535" r="7.5"/><circle cx="406.001" cy="225" fill="#ff4128" r="7.5"/><circle cx="346.001" cy="255" fill="#353535" r="7.5"/><circle cx="376.001" cy="255" fill="#353535" r="7.5"/><path d="m391.001 172.5c-4.142 0-7.5-3.358-7.5-7.5v-15c0-4.142 3.358-7.5 7.5-7.5s7.5 3.358 7.5 7.5v15c0 4.142-3.358 7.5-7.5 7.5z" fill="#b3b3b3"/><path d="m421.001 172.5c-4.142 0-7.5-3.358-7.5-7.5v-15c0-4.142 3.358-7.5 7.5-7.5s7.5 3.358 7.5 7.5v15c0 4.142-3.358 7.5-7.5 7.5z" fill="#999"/><g fill="#b3b3b3"><path d="m361.001 172.5c-4.142 0-7.5-3.358-7.5-7.5v-15c0-4.142 3.358-7.5 7.5-7.5s7.5 3.358 7.5 7.5v15c0 4.142-3.358 7.5-7.5 7.5z"/><path d="m331.001 172.5c-4.142 0-7.5-3.358-7.5-7.5v-15c0-4.142 3.358-7.5 7.5-7.5s7.5 3.358 7.5 7.5v15c0 4.142-3.358 7.5-7.5 7.5z"/></g></g></svg>